<svg width="116" height="121" viewBox="0 0 116 121" fill="none" xmlns="http://www.w3.org/2000/svg">
<path fill-rule="evenodd" clip-rule="evenodd" d="M27 101C26.4477 101 26 101.448 26 102V107C26 109.209 27.7909 111 30 111H102C104.209 111 106 109.209 106 107V67C106 66.4477 105.552 66 105 66H101C99.8954 66 99 65.1046 99 64V62C99 61.4477 98.5523 61 98 61H97C96.4477 61 96 61.4477 96 62V97C96 99.2091 94.2091 101 92 101H27ZM105 44C105.552 44 106 43.5523 106 43V15C106 12.7909 104.209 11 102 11H97C96.4477 11 96 11.4477 96 12V48C96 48.5523 96.4477 49 97 49H98C98.5523 49 99 48.5523 99 48V46C99 44.8954 99.8954 44 101 44H105Z" fill="#1E2626"/>
<path fill-rule="evenodd" clip-rule="evenodd" d="M15 4C15 1.79086 16.7909 0 19 0H91C93.2091 0 95 1.79086 95 4V49C95 49.5523 95.4477 50 96 50H99C99.5523 50 100 49.5523 100 49V47C100 45.8954 100.895 45 102 45H108C109.105 45 110 45.8954 110 47V63C110 64.1046 109.105 65 108 65H102C100.895 65 100 64.1046 100 63V61C100 60.4477 99.5523 60 99 60H96C95.4477 60 95 60.4477 95 61V96C95 98.2091 93.2091 100 91 100H19C16.7909 100 15 98.2091 15 96V61C15 60.4477 14.5523 60 14 60H11C10.4477 60 10 60.4477 10 61V63C10 64.1046 9.10457 65 8 65H2C0.89543 65 0 64.1046 0 63V47C0 45.8954 0.895431 45 2 45H8C9.10457 45 10 45.8954 10 47V49C10 49.5523 10.4477 50 11 50H14C14.5523 50 15 49.5523 15 49V4ZM88.435 80.7071C88.8256 80.3166 89.4587 80.3166 89.8492 80.7071C90.2398 81.0976 90.2398 81.7308 89.8492 82.1213L87.1924 84.7782L89.2785 86.8643C89.669 87.2548 89.669 87.888 89.2785 88.2785C88.888 88.669 88.2548 88.669 87.8643 88.2785L85.7782 86.1924L84.1924 87.7782L86.2785 89.8643C86.669 90.2548 86.669 90.888 86.2785 91.2785C85.888 91.669 85.2548 91.669 84.8643 91.2785L82.7782 89.1924L81.1924 90.7782L83.2785 92.8643C83.669 93.2548 83.669 93.888 83.2785 94.2785C82.888 94.669 82.2548 94.669 81.8643 94.2785L79.7782 92.1924L77.1213 94.8492C76.7308 95.2398 76.0976 95.2398 75.7071 94.8492C75.3166 94.4587 75.3166 93.8256 75.7071 93.435L78.364 90.7782L76.2074 88.6217C75.8169 88.2311 75.8169 87.598 76.2074 87.2074C76.598 86.8169 77.2311 86.8169 77.6216 87.2074L79.7782 89.364L81.364 87.7782L79.2074 85.6217C78.8169 85.2311 78.8169 84.598 79.2074 84.2074C79.598 83.8169 80.2311 83.8169 80.6216 84.2074L82.7782 86.364L84.364 84.7782L82.2074 82.6217C81.8169 82.2311 81.8169 81.598 82.2074 81.2074C82.598 80.8169 83.2311 80.8169 83.6216 81.2074L85.7782 83.364L88.435 80.7071Z" fill="#A56BAF"/>
<path fill-rule="evenodd" clip-rule="evenodd" d="M36 113C36 112.448 36.4477 112 37 112H103C105.209 112 107 110.209 107 108V67C107 66.4477 107.448 66 108 66H109C110.105 66 111 65.1046 111 64V46C111 44.8954 110.105 44 109 44H108C107.448 44 107 43.5523 107 43V22C107 21.4477 107.448 21 108 21H112C114.209 21 116 22.7909 116 25V117C116 119.209 114.209 121 112 121H40C37.7909 121 36 119.209 36 117V113Z" fill="#A56BAF"/>
</svg>
