<!-- <svg width="110" height="110" viewBox="0 0 110 110" fill="none" xmlns="http://www.w3.org/2000/svg">
<rect x="25" y="10" width="80" height="100" rx="4" fill="#1E2626"/>
<path d="M15 4C15 1.79086 16.7909 0 19 0H91C93.2091 0 95 1.79086 95 4V96C95 98.2091 93.2091 100 91 100H19C16.7909 100 15 98.2091 15 96V4Z" fill="#A56BAF"/>
<path d="M95 50H100V60H95V50Z" fill="#A56BAF"/>
<rect x="100" y="45" width="10" height="20" rx="2" fill="#A56BAF"/>
<rect y="45" width="10" height="20" rx="2" fill="#A56BAF"/>
<path d="M10 50H15V60H10V50Z" fill="#A56BAF"/>
<rect x="83.1422" y="74" width="2" height="20" rx="1" transform="rotate(45 83.1422 74)" fill="#1E2626"/>
<rect x="69.5003" y="81.9146" width="2" height="10" rx="1" transform="rotate(-45 69.5003 81.9146)" fill="#1E2626"/>
<rect x="72.5003" y="78.9146" width="2" height="10" rx="1" transform="rotate(-45 72.5003 78.9146)" fill="#1E2626"/>
<rect x="75.5003" y="75.9146" width="2" height="10" rx="1" transform="rotate(-45 75.5003 75.9146)" fill="#1E2626"/>
</svg> -->

<svg width="111" height="112" viewBox="0 0 111 112" fill="none" xmlns="http://www.w3.org/2000/svg">
<rect x="26" y="12" width="80" height="100" rx="4" fill="#1E2626"/>
<path fill-rule="evenodd" clip-rule="evenodd" d="M14 4C14 1.79086 15.7909 0 18 0H92C94.2091 0 96 1.79086 96 4V50H99V47C99 45.8954 99.8954 45 101 45H109C110.105 45 111 45.8954 111 47V65C111 66.1046 110.105 67 109 67H101C99.8954 67 99 66.1046 99 65V62H96V98C96 100.209 94.2091 102 92 102H18C15.7909 102 14 100.209 14 98V4Z" fill="#A56BAF"/>
<path fill-rule="evenodd" clip-rule="evenodd" d="M15 5C15 2.79086 16.7909 1 19 1H91C93.2091 1 95 2.79086 95 5V50C95 50.5523 95.4477 51 96 51H99C99.5523 51 100 50.5523 100 50V48C100 46.8954 100.895 46 102 46H108C109.105 46 110 46.8954 110 48V64C110 65.1046 109.105 66 108 66H102C100.895 66 100 65.1046 100 64V62C100 61.4477 99.5523 61 99 61H96C95.4477 61 95 61.4477 95 62V97C95 99.2091 93.2091 101 91 101H19C16.7909 101 15 99.2091 15 97V62C15 61.4477 14.5523 61 14 61H11C10.4477 61 10 61.4477 10 62V64C10 65.1046 9.10457 66 8 66H2C0.89543 66 0 65.1046 0 64V48C0 46.8954 0.895431 46 2 46H8C9.10457 46 10 46.8954 10 48V50C10 50.5523 10.4477 51 11 51H14C14.5523 51 15 50.5523 15 50V5Z" fill="#A56BAF"/>
<rect x="89.1422" y="81" width="2" height="20" rx="1" transform="rotate(45 89.1422 81)" fill="#1E2626"/>
<rect x="75.5003" y="88.9146" width="2" height="10" rx="1" transform="rotate(-45 75.5003 88.9146)" fill="#1E2626"/>
<rect x="78.5003" y="85.9146" width="2" height="10" rx="1" transform="rotate(-45 78.5003 85.9146)" fill="#1E2626"/>
<rect x="81.5003" y="82.9146" width="2" height="10" rx="1" transform="rotate(-45 81.5003 82.9146)" fill="#1E2626"/>
</svg>